<svg xmlns="http://www.w3.org/2000/svg" viewBox="0 0 64 64" width="64" height="64" role="img" aria-label="AI Ready"><rect width="64" height="64" rx="14" fill="#16152b"/><g transform="translate(10 10) scale(1.375)"><path d="M16 10 Q11 7.4 4.6 8.4 Q4.4 16.4 4.8 24.4 Q11 23.2 16 25.8" fill="none" stroke="#faf9fd" stroke-width="2" stroke-linecap="round" stroke-linejoin="round"/><path d="M16 10 Q21 7.4 27.4 8.4 Q27.6 16.4 27.2 24.4 Q21 23.2 16 25.8" fill="none" stroke="#faf9fd" stroke-width="2" stroke-linecap="round" stroke-linejoin="round"/><path d="M16 10 Q16.3 18 16 25.8" fill="none" stroke="#faf9fd" stroke-width="1.6" stroke-linecap="round" stroke-linejoin="round"/><path d="M7.4 12.8 Q10.4 12.2 13.2 13.4" fill="none" stroke="#faf9fd" stroke-width="1.6" stroke-linecap="round" stroke-linejoin="round"/><path d="M7.4 16.4 Q10.4 15.8 13.2 17" fill="none" stroke="#faf9fd" stroke-width="1.6" stroke-linecap="round" stroke-linejoin="round"/><path d="M7.4 20 Q9.4 19.6 11.2 20.2" fill="none" stroke="#faf9fd" stroke-width="1.6" stroke-linecap="round" stroke-linejoin="round"/><path d="M21.8 11.695999999999998 Q22.55264 15.647359999999999 26.504 16.4 Q22.55264 17.152639999999998 21.8 21.104 Q21.04736 17.152639999999998 17.096 16.4 Q21.04736 15.647359999999999 21.8 11.695999999999998Z" fill="#05df72"/></g></svg>
